<svg width="206" height="121" viewBox="0 0 206 121" fill="none" xmlns="http://www.w3.org/2000/svg">
<g filter="url(#filter0_d_108_7892)">
<rect x="40" y="32" width="126" height="41" rx="3" fill="white"/>
</g>
<circle cx="63.5" cy="52.5" r="12.5" fill="#5625DF"/>
<path d="M64.932 57.9981V52.5341H66.7753L67.0493 50.3948H64.932V49.0321C64.932 48.4148 65.104 47.9921 65.99 47.9921H67.1127V46.0848C66.5664 46.0262 66.0174 45.998 65.468 46.0001C63.8387 46.0001 62.72 46.9948 62.72 48.8208V50.3908H60.8887V52.5301H62.724V57.9981H64.932Z" fill="white"/>
<circle cx="141.5" cy="52.5" r="12.5" fill="#37DAF3"/>
<path d="M148.762 47.2911C148.206 47.5378 147.608 47.7045 146.979 47.7798C147.628 47.3917 148.113 46.7808 148.344 46.0611C147.735 46.4231 147.068 46.6779 146.372 46.8145C145.905 46.3151 145.285 45.984 144.61 45.8728C143.935 45.7616 143.242 45.8763 142.638 46.1993C142.035 46.5223 141.556 47.0354 141.274 47.6589C140.992 48.2825 140.924 48.9816 141.08 49.6478C139.845 49.5858 138.637 49.2648 137.535 48.7057C136.432 48.1467 135.459 47.3619 134.679 46.4025C134.412 46.8625 134.259 47.3958 134.259 47.9638C134.259 48.4751 134.385 48.9786 134.626 49.4296C134.867 49.8806 135.215 50.2652 135.64 50.5491C135.147 50.5335 134.665 50.4002 134.234 50.1605V50.2005C134.234 50.9176 134.482 51.6127 134.936 52.1678C135.39 52.7229 136.022 53.1038 136.725 53.2458C136.268 53.3696 135.788 53.3879 135.322 53.2991C135.521 53.9162 135.907 54.4558 136.427 54.8424C136.947 55.229 137.576 55.4433 138.224 55.4551C137.124 56.3188 135.765 56.7872 134.366 56.7851C134.119 56.7852 133.871 56.7707 133.625 56.7418C135.045 57.6546 136.697 58.139 138.385 58.1371C144.098 58.1371 147.222 53.4051 147.222 49.3011C147.222 49.1678 147.218 49.0331 147.212 48.8998C147.82 48.4605 148.344 47.9164 148.761 47.2931L148.762 47.2911Z" fill="white"/>
<circle cx="102.5" cy="52.5" r="12.5" fill="#FF27B7"/>
<path d="M107.965 49.5368C107.958 49.0319 107.863 48.532 107.685 48.0595C107.531 47.6609 107.295 47.299 106.993 46.9967C106.691 46.6945 106.329 46.4586 105.93 46.3042C105.464 46.1291 104.971 46.0344 104.473 46.0242C103.831 45.9955 103.628 45.9875 102 45.9875C100.372 45.9875 100.163 45.9875 99.5267 46.0242C99.0288 46.0345 98.5363 46.1291 98.07 46.3042C97.6714 46.4585 97.3094 46.6943 97.0071 46.9966C96.7049 47.2989 96.469 47.6609 96.3147 48.0595C96.1393 48.5256 96.0448 49.0182 96.0354 49.5162C96.0067 50.1582 95.998 50.3615 95.998 51.9895C95.998 53.6175 95.998 53.8255 96.0354 54.4628C96.0454 54.9615 96.1394 55.4535 96.3147 55.9208C96.4693 56.3193 96.7053 56.6812 97.0077 56.9834C97.31 57.2855 97.6721 57.5212 98.0707 57.6755C98.5357 57.8576 99.0283 57.9591 99.5274 57.9755C100.169 58.0042 100.373 58.0128 102.001 58.0128C103.629 58.0128 103.837 58.0128 104.474 57.9755C104.972 57.9657 105.465 57.8712 105.931 57.6962C106.33 57.5416 106.692 57.3056 106.994 57.0034C107.296 56.7012 107.532 56.3393 107.687 55.9408C107.862 55.4742 107.956 54.9822 107.966 54.4828C107.995 53.8415 108.003 53.6382 108.003 52.0095C108.002 50.3815 108.002 50.1748 107.965 49.5368ZM101.996 55.0682C100.293 55.0682 98.914 53.6888 98.914 51.9862C98.914 50.2835 100.293 48.9042 101.996 48.9042C102.813 48.9042 103.597 49.2289 104.175 49.8069C104.753 50.3849 105.078 51.1688 105.078 51.9862C105.078 52.8036 104.753 53.5875 104.175 54.1655C103.597 54.7435 102.813 55.0682 101.996 55.0682ZM105.201 49.5088C104.803 49.5088 104.482 49.1875 104.482 48.7902C104.482 48.6958 104.501 48.6024 104.537 48.5153C104.573 48.4281 104.626 48.3489 104.692 48.2822C104.759 48.2155 104.838 48.1626 104.925 48.1265C105.013 48.0904 105.106 48.0718 105.2 48.0718C105.295 48.0718 105.388 48.0904 105.475 48.1265C105.562 48.1626 105.642 48.2155 105.708 48.2822C105.775 48.3489 105.828 48.4281 105.864 48.5153C105.9 48.6024 105.919 48.6958 105.919 48.7902C105.919 49.1875 105.597 49.5088 105.201 49.5088Z" fill="white"/>
<path d="M101.996 53.9878C103.102 53.9878 103.998 53.0915 103.998 51.9858C103.998 50.8801 103.102 49.9838 101.996 49.9838C100.89 49.9838 99.9941 50.8801 99.9941 51.9858C99.9941 53.0915 100.89 53.9878 101.996 53.9878Z" fill="white"/>
<defs>
<filter id="filter0_d_108_7892" x="0" y="0" width="206" height="121" filterUnits="userSpaceOnUse" color-interpolation-filters="sRGB">
<feFlood flood-opacity="0" result="BackgroundImageFix"/>
<feColorMatrix in="SourceAlpha" type="matrix" values="0 0 0 0 0 0 0 0 0 0 0 0 0 0 0 0 0 0 127 0" result="hardAlpha"/>
<feOffset dy="8"/>
<feGaussianBlur stdDeviation="20"/>
<feColorMatrix type="matrix" values="0 0 0 0 0.192157 0 0 0 0 0.12549 0 0 0 0 0.541176 0 0 0 0.05 0"/>
<feBlend mode="normal" in2="BackgroundImageFix" result="effect1_dropShadow_108_7892"/>
<feBlend mode="normal" in="SourceGraphic" in2="effect1_dropShadow_108_7892" result="shape"/>
</filter>
</defs>
</svg>
